<?xml version="1.0" encoding="UTF-8" standalone="no"?>
<svg
   xmlns:dc="http://purl.org/dc/elements/1.1/"
   xmlns:cc="http://creativecommons.org/ns#"
   xmlns:rdf="http://www.w3.org/1999/02/22-rdf-syntax-ns#"
   xmlns:svg="http://www.w3.org/2000/svg"
   xmlns="http://www.w3.org/2000/svg"
   xmlns:sodipodi="http://sodipodi.sourceforge.net/DTD/sodipodi-0.dtd"
   xmlns:inkscape="http://www.inkscape.org/namespaces/inkscape"
   viewBox="0 0 22.499972 30"
   version="1.1"
   id="svg4"
   sodipodi:docname="child.svg"
   width="22.499971"
   height="30"
   inkscape:version="0.92.5 (2060ec1f9f, 2020-04-08)">
  <metadata
     id="metadata10">
    <rdf:RDF>
      <cc:Work
         rdf:about="">
        <dc:format>image/svg+xml</dc:format>
        <dc:type
           rdf:resource="http://purl.org/dc/dcmitype/StillImage" />
      </cc:Work>
    </rdf:RDF>
  </metadata>
  <defs
     id="defs8" />
  <sodipodi:namedview
     pagecolor="#ffffff"
     bordercolor="#666666"
     borderopacity="1"
     objecttolerance="10"
     gridtolerance="10"
     guidetolerance="10"
     inkscape:pageopacity="0"
     inkscape:pageshadow="2"
     inkscape:window-width="1680"
     inkscape:window-height="985"
     id="namedview6"
     showgrid="false"
     inkscape:zoom="0.4609375"
     inkscape:cx="191.99975"
     inkscape:cy="256"
     inkscape:window-x="0"
     inkscape:window-y="0"
     inkscape:window-maximized="1"
     inkscape:current-layer="svg4" />
  <!-- Font Awesome Free 5.15.3 by @fontawesome - https://fontawesome.com License - https://fontawesome.com/license/free (Icons: CC BY 4.0, Fonts: SIL OFL 1.1, Code: MIT License) -->
  <path
     d="M 7.0312355,4.21875 C 7.0312355,1.88877 8.920005,0 11.249985,0 c 2.329981,0 4.21875,1.88877 4.21875,4.21875 0,2.32992 -1.888769,4.21875 -4.21875,4.21875 -2.32998,0 -4.2187495,-1.88883 -4.2187495,-4.21875 z m 14.9195505,0.0804 c -0.732187,-0.73225 -1.919414,-0.73225 -2.651601,0 l -5.07586,5.0758 H 8.276587 L 3.2007861,4.29915 c -0.7321875,-0.73225 -1.919414,-0.73225 -2.65160155,0 -0.73224607,0.73225 -0.73224607,1.91941 0,2.65166 L 6.0937355,12.4953 V 28.125 c 0,1.03553 0.8394725,1.875 1.875,1.875 h 0.9375 c 1.035527,0 1.8749995,-0.83947 1.8749995,-1.875 v -6.5625 h 0.9375 v 6.5625 c 0,1.03553 0.839473,1.875 1.875,1.875 h 0.9375 c 1.035528,0 1.875,-0.83947 1.875,-1.875 V 12.49535 L 21.950786,6.9508 c 0.732246,-0.73225 0.732246,-1.91935 0,-2.6516 z"
     id="path2"
     inkscape:connector-curvature="0"
     style="stroke-width:0.05859375" />
</svg>
