<?xml version="1.0" encoding="UTF-8" standalone="no"?>
<svg
   xmlns:dc="http://purl.org/dc/elements/1.1/"
   xmlns:cc="http://creativecommons.org/ns#"
   xmlns:rdf="http://www.w3.org/1999/02/22-rdf-syntax-ns#"
   xmlns:svg="http://www.w3.org/2000/svg"
   xmlns="http://www.w3.org/2000/svg"
   xmlns:sodipodi="http://sodipodi.sourceforge.net/DTD/sodipodi-0.dtd"
   xmlns:inkscape="http://www.inkscape.org/namespaces/inkscape"
   viewBox="0 0 30 28.126677"
   version="1.1"
   id="svg4"
   sodipodi:docname="dog.svg"
   width="30"
   height="28.126677"
   inkscape:version="0.92.5 (2060ec1f9f, 2020-04-08)">
  <metadata
     id="metadata10">
    <rdf:RDF>
      <cc:Work
         rdf:about="">
        <dc:format>image/svg+xml</dc:format>
        <dc:type
           rdf:resource="http://purl.org/dc/dcmitype/StillImage" />
      </cc:Work>
    </rdf:RDF>
  </metadata>
  <defs
     id="defs8" />
  <sodipodi:namedview
     pagecolor="#ffffff"
     bordercolor="#666666"
     borderopacity="1"
     objecttolerance="10"
     gridtolerance="10"
     guidetolerance="10"
     inkscape:pageopacity="0"
     inkscape:pageshadow="2"
     inkscape:window-width="1680"
     inkscape:window-height="985"
     id="namedview6"
     showgrid="false"
     inkscape:zoom="0.4609375"
     inkscape:cx="256"
     inkscape:cy="256"
     inkscape:window-x="0"
     inkscape:window-y="0"
     inkscape:window-maximized="1"
     inkscape:current-layer="svg4" />
  <!-- Font Awesome Free 5.15.3 by @fontawesome - https://fontawesome.com License - https://fontawesome.com/license/free (Icons: CC BY 4.0, Fonts: SIL OFL 1.1, Code: MIT License) -->
  <path
     d="m 15.589453,11.251676 8.785547,3.1377 v 12.7998 a 0.9375,0.9375 0 0 1 -0.9375,0.9375 h -3.75 a 0.9375,0.9375 0 0 1 -0.9375,-0.9375 v -6.5625 H 9.375 v 6.5625 a 0.9375,0.9375 0 0 1 -0.9375,0.9375 h -3.75 A 0.9375,0.9375 0 0 1 3.75,27.189176 V 14.655386 C 1.572656,13.879016 0,11.817696 0,9.3766757 a 1.875,1.875 0 0 1 3.75,0 1.8785156,1.8785156 0 0 0 1.875,1.8750003 z M 30,4.6891757 v 1.875 a 3.75,3.75 0 0 1 -3.75,3.7500003 h -1.875 v 2.08477 l -7.5,-2.6783203 V 0.93917569 c 0,-0.83496 1.008984,-1.25332 1.600195,-0.6627 l 1.598438,1.60020001 h 3.142383 c 0.639257,0 1.391601,0.46406 1.676953,1.03652 l 0.419531,0.83848 h 3.75 A 0.9375,0.9375 0 0 1 30,4.6891757 Z m -6.5625,0 a 0.9375,0.9375 0 1 0 -0.9375,0.9375 0.9375,0.9375 0 0 0 0.9375,-0.9375 z"
     id="path2"
     inkscape:connector-curvature="0"
     style="stroke-width:0.05859375" />
</svg>
