<?xml version="1.0" encoding="UTF-8" standalone="no"?>
<svg
   xmlns:dc="http://purl.org/dc/elements/1.1/"
   xmlns:cc="http://creativecommons.org/ns#"
   xmlns:rdf="http://www.w3.org/1999/02/22-rdf-syntax-ns#"
   xmlns:svg="http://www.w3.org/2000/svg"
   xmlns="http://www.w3.org/2000/svg"
   xmlns:sodipodi="http://sodipodi.sourceforge.net/DTD/sodipodi-0.dtd"
   xmlns:inkscape="http://www.inkscape.org/namespaces/inkscape"
   viewBox="0 0 30 30"
   version="1.1"
   id="svg4"
   sodipodi:docname="info-circle.svg"
   width="30"
   height="30"
   inkscape:version="0.92.5 (2060ec1f9f, 2020-04-08)">
  <metadata
     id="metadata10">
    <rdf:RDF>
      <cc:Work
         rdf:about="">
        <dc:format>image/svg+xml</dc:format>
        <dc:type
           rdf:resource="http://purl.org/dc/dcmitype/StillImage" />
      </cc:Work>
    </rdf:RDF>
  </metadata>
  <defs
     id="defs8" />
  <sodipodi:namedview
     pagecolor="#ffffff"
     bordercolor="#666666"
     borderopacity="1"
     objecttolerance="10"
     gridtolerance="10"
     guidetolerance="10"
     inkscape:pageopacity="0"
     inkscape:pageshadow="2"
     inkscape:window-width="1680"
     inkscape:window-height="985"
     id="namedview6"
     showgrid="false"
     inkscape:zoom="0.4609375"
     inkscape:cx="248"
     inkscape:cy="248"
     inkscape:window-x="0"
     inkscape:window-y="0"
     inkscape:window-maximized="1"
     inkscape:current-layer="svg4" />
  <!-- Font Awesome Free 5.15.3 by @fontawesome - https://fontawesome.com License - https://fontawesome.com/license/free (Icons: CC BY 4.0, Fonts: SIL OFL 1.1, Code: MIT License) -->
  <path
     d="M 15,0 C 6.71631,0 0,6.71873 0,15 0,23.28611 6.71631,30 15,30 23.28369,30 30,23.28611 30,15 30,6.71873 23.28369,0 15,0 Z m 0,6.65323 c 1.402984,0 2.540323,1.13733 2.540323,2.54032 0,1.40298 -1.137339,2.54032 -2.540323,2.54032 -1.402984,0 -2.540323,-1.13734 -2.540323,-2.54032 0,-1.40299 1.137339,-2.54032 2.540323,-2.54032 z m 3.387097,15.3629 c 0,0.40083 -0.32498,0.72581 -0.725807,0.72581 h -5.32258 c -0.400827,0 -0.725807,-0.32498 -0.725807,-0.72581 v -1.45161 c 0,-0.40083 0.32498,-0.72581 0.725807,-0.72581 h 0.725806 V 15.96774 H 12.33871 c -0.400827,0 -0.725807,-0.32498 -0.725807,-0.7258 v -1.45162 c 0,-0.40082 0.32498,-0.7258 0.725807,-0.7258 h 3.870967 c 0.400827,0 0.725807,0.32498 0.725807,0.7258 v 6.04839 h 0.725806 c 0.400827,0 0.725807,0.32498 0.725807,0.72581 z"
     id="path2"
     inkscape:connector-curvature="0"
     style="stroke-width:0.06048387" />
</svg>
