<?xml version="1.0" encoding="UTF-8" standalone="no"?>
<svg
   xmlns:dc="http://purl.org/dc/elements/1.1/"
   xmlns:cc="http://creativecommons.org/ns#"
   xmlns:rdf="http://www.w3.org/1999/02/22-rdf-syntax-ns#"
   xmlns:svg="http://www.w3.org/2000/svg"
   xmlns="http://www.w3.org/2000/svg"
   xmlns:sodipodi="http://sodipodi.sourceforge.net/DTD/sodipodi-0.dtd"
   xmlns:inkscape="http://www.inkscape.org/namespaces/inkscape"
   viewBox="0 0 29.999999 21.165722"
   version="1.1"
   id="svg4"
   sodipodi:docname="money.svg"
   width="30"
   height="21.165722"
   inkscape:version="0.92.5 (2060ec1f9f, 2020-04-08)">
  <metadata
     id="metadata10">
    <rdf:RDF>
      <cc:Work
         rdf:about="">
        <dc:format>image/svg+xml</dc:format>
        <dc:type
           rdf:resource="http://purl.org/dc/dcmitype/StillImage" />
        <dc:title></dc:title>
      </cc:Work>
    </rdf:RDF>
  </metadata>
  <defs
     id="defs8" />
  <sodipodi:namedview
     pagecolor="#ffffff"
     bordercolor="#666666"
     borderopacity="1"
     objecttolerance="10"
     gridtolerance="10"
     guidetolerance="10"
     inkscape:pageopacity="0"
     inkscape:pageshadow="2"
     inkscape:window-width="1680"
     inkscape:window-height="985"
     id="namedview6"
     showgrid="false"
     inkscape:zoom="0.64"
     inkscape:cx="-163.81661"
     inkscape:cy="43.228819"
     inkscape:window-x="0"
     inkscape:window-y="0"
     inkscape:window-maximized="1"
     inkscape:current-layer="svg4" />
  <!-- Font Awesome Free 5.15.3 by @fontawesome - https://fontawesome.com License - https://fontawesome.com/license/free (Icons: CC BY 4.0, Fonts: SIL OFL 1.1, Code: MIT License) -->
  <path
     d="m 0.88358015,20.104601 c 1.81825185,0.768675 3.63791125,1.06112 5.45663285,1.06112 5.773505,3.8e-4 11.546539,-2.94525 17.320042,-2.94525 1.447947,0 2.894955,0.1852 4.342902,0.6482 0.162654,0.05197 0.325776,0.07654 0.485148,0.07654 C 29.295011,18.945211 30,18.315906 30,17.442351 V 2.453429 C 30,1.856725 29.661099,1.291204 29.11689,1.061593 27.298636,0.292447 25.478977,0 23.660255,0 17.886752,0 12.113248,2.945721 6.339745,2.945721 4.8917979,2.945721 3.4447902,2.76052 1.996843,2.297521 1.8341893,2.245551 1.6710678,2.220984 1.5116952,2.220984 0.70498905,2.220984 0,2.850285 0,3.723844 v 14.988447 c 3.7887667e-4,0.597175 0.3393693,1.162225 0.88358015,1.39231 z M 15.000235,6.047349 c 2.071374,0 3.749941,2.031059 3.749941,4.535512 0,2.504924 -1.679037,4.535511 -3.749941,4.535511 -2.070906,0 -3.749941,-2.030587 -3.749941,-4.535511 0,-2.505398 1.679503,-4.535512 3.749941,-4.535512 z"
     id="path2"
     inkscape:connector-curvature="0"
     style="stroke-width:0.04705923" />
</svg>
